<svg id="Layer_1" data-name="Layer 1" xmlns="http://www.w3.org/2000/svg" viewBox="0 0 184 184"><defs><style>.cls-1{stroke:#000;stroke-linecap:round;stroke-linejoin:round;stroke-width:4px;}.cls-2{font-size:24px;fill:#f2f2f2;font-family:Lato-Black, Lato;font-weight:800;}.cls-3{letter-spacing:-0.01em;}</style></defs><title>openupm-icon-mask</title><path class="cls-1" d="M90.51,96.44l84-25.09V150.7L90.87,176.42Zm0,.92-78-25.08v79.34l78,25.09Zm41-12.86,43-13.07L88.83,45.5,51.5,57.5,14,71.43l78.24,25.2Zm-79-25L13,71.43l77.23,25.2L131.5,82.5Zm82,22L155.61,74s.85-15.91-2.24-23.5c3.15-7.92,8-22.3,7.59-25.25-9.53-.73-22.14,11.82-22.14,11.82-3.37-2.53-15.92-6.43-20.14-7.83-7.18-2.4-19.34-2.37-19.34-2.37S88.19,8.68,85.11,9.13c-1.54,3.24-1.11,17-3.36,22.38-16.25,15-16.25,28-16.25,28ZM87.14,49.82a4.79,4.79,0,1,0-1.51-6.66A4.83,4.83,0,0,0,87.14,49.82Zm45.77,12a4.78,4.78,0,1,0-1.51-6.66A4.83,4.83,0,0,0,132.91,61.79ZM104.66,64.1"/><text class="cls-2" transform="translate(-0.26 -11.98)">i<tspan class="cls-3" x="6.41" y="0">c</tspan><tspan x="17.87" y="0">on + mask</tspan></text></svg>